<svg width="30" height="31" xmlns="http://www.w3.org/2000/svg"><path clip-rule="evenodd" d="M6.091 5.47l2.233 2.233a10.223 10.223 0 015.883-2.437V2.108A13.357 13.357 0 006.091 5.47zm9.702-3.362v3.158a10.224 10.224 0 015.883 2.437l2.233-2.233a13.357 13.357 0 00-8.116-3.362zm9.237 4.483l-2.233 2.233a10.223 10.223 0 012.437 5.883h3.158a13.357 13.357 0 00-3.362-8.116zm3.362 9.702h-3.158a10.223 10.223 0 01-2.437 5.883l2.233 2.233a13.357 13.357 0 003.362-8.116zm-4.483 9.237l-2.233-2.233a10.223 10.223 0 01-5.883 2.437v3.158a13.364 13.364 0 008.116-3.362zm-9.702 3.362v-3.158a10.223 10.223 0 01-5.883-2.437L6.091 25.53a13.357 13.357 0 008.116 3.362zM4.97 24.409l2.233-2.233a10.224 10.224 0 01-2.437-5.883H1.608a13.357 13.357 0 003.362 8.116zm-3.362-9.702h3.158a10.223 10.223 0 012.437-5.883L4.97 6.591a13.357 13.357 0 00-3.362 8.116zm2.785-9.814A14.956 14.956 0 0115 .5a14.96 14.96 0 0110.607 4.393A14.956 14.956 0 0130 15.5a14.96 14.96 0 01-4.393 10.607A14.956 14.956 0 0115 30.5a14.96 14.96 0 01-10.607-4.393A14.956 14.956 0 010 15.5 14.96 14.96 0 014.393 4.893zM15 6.821a8.65 8.65 0 00-6.137 2.542A8.65 8.65 0 006.321 15.5a8.65 8.65 0 002.542 6.137A8.65 8.65 0 0015 24.179a8.65 8.65 0 006.137-2.542 8.65 8.65 0 002.542-6.137 8.65 8.65 0 00-2.542-6.137A8.65 8.65 0 0015 6.821zm-1.102 3.126v3.382h-1.585v-.715a3.933 3.933 0 00-1.256 2.886c0 1.139.483 2.166 1.256 2.886v-.715h1.585v3.382l-1.11-.485a5.53 5.53 0 010-10.136l1.11-.485zm2.204 0l1.11.485a5.53 5.53 0 010 10.136l-1.11.485v-3.382h1.585v.715a3.933 3.933 0 001.256-2.886 3.933 3.933 0 00-1.256-2.886v.715h-1.585V9.947z"/></svg>