<svg width="19" height="18" fill="none" xmlns="http://www.w3.org/2000/svg"><path clip-rule="evenodd" d="M8.75 17.426l.217.172.532.399.532-.4.217-.171a26.184 26.184 0 003.073-2.92c1.65-1.853 3.452-4.482 3.452-7.232a7.274 7.274 0 00-14.548 0c0 2.75 1.803 5.379 3.452 7.232a26.187 26.187 0 003.073 2.92zM9.499 1.5a5.774 5.774 0 00-5.774 5.774c0 2.158 1.46 4.422 3.072 6.235A24.667 24.667 0 009.5 16.102a24.662 24.662 0 002.702-2.593c1.613-1.813 3.072-4.077 3.072-6.235A5.774 5.774 0 009.499 1.5z"/><path clip-rule="evenodd" d="M9.499 4.762a2.512 2.512 0 100 5.024 2.512 2.512 0 000-5.024zM5.487 7.274a4.012 4.012 0 118.024 0 4.012 4.012 0 01-8.024 0z"/></svg>